<svg width="28" height="37" viewBox="0 0 28 37" fill="none" xmlns="http://www.w3.org/2000/svg">
<g clip-path="url(#clip0_427_491)">
<path fill-rule="evenodd" clip-rule="evenodd" d="M27.7437 17.7605V36.9913H26.8588V19.138L14.3361 36.9913H13.4513L0.884377 19.138V36.9913H-0.000488281V17.7605H0.884377L13.8939 36.2602L26.8588 17.7605H27.7437ZM0.866549 16.3479H-0.000488281C-0.000488281 13.1908 0.591323 10.3674 1.77464 7.87822C2.95828 5.38874 4.60295 3.4536 6.70836 2.07216C8.81409 0.691045 11.2017 0.000488281 13.8716 0.000488281C16.5415 0.000488281 18.9291 0.691045 21.0348 2.07216C23.1405 3.4536 24.7849 5.38874 25.9686 7.87822C27.1522 10.3674 27.7437 13.1908 27.7437 16.3479H26.877C26.877 13.2209 26.3058 10.4813 25.1635 8.1287C24.0213 5.77576 22.4593 3.96964 20.4774 2.70967C18.4957 1.45004 16.2939 0.820057 13.8716 0.820057C11.4496 0.820057 9.24746 1.45004 7.26582 2.70967C5.28419 3.96964 3.72223 5.77576 2.57996 8.1287C1.43769 10.4813 0.866549 13.2209 0.866549 16.3479Z" fill="black"/>
</g>
<defs>
<clipPath id="clip0_427_491">
<rect width="28" height="37" fill="white"/>
</clipPath>
</defs>
</svg>
